<svg xmlns="http://www.w3.org/2000/svg" xmlns:xlink="http://www.w3.org/1999/xlink" viewBox="0 0 201.15 247.17"><defs><style>.a{fill:none;}.b,.j{fill:#83c09d;}.c{clip-path:url(#a);}.d{fill:#d1e6e8;}.e{fill:#fff;}.f{fill:#feeadc;}.g{fill:#f4cdbb;}.h{fill:#30120d;}.i{fill:#5e2115;}.j{stroke:#fff;stroke-width:3.54px;}.k{clip-path:url(#b);}.l{fill:#010101;}</style><clipPath id="a" transform="translate(0.76 -1.68)"><path class="a" d="M126.32,63.28c0,35.05-27.73,63.8-62.81,63.74C29.37,127,0,98.51,0,63.45A63.51,63.51,0,0,1,63.51,0a62.7,62.7,0,0,1,62.81,62.61Z"/></clipPath><clipPath id="b" transform="translate(0.76 -1.68)"><path class="a" d="M200,135.51A63.48,63.48,0,0,1,136.57,199h-.08C102.35,199,73,170.57,73,135.51a63.51,63.51,0,0,1,127,0Z"/></clipPath></defs><title>financial-well-being-icon</title><path class="b" d="M126,64.43A62.77,62.77,0,1,1,63.18,1.68h0A62.77,62.77,0,0,1,126,64.43Z" transform="translate(0.76 -1.68)"/><g class="c"><path class="d" d="M79.87,88.29c7.46,2.47,31.32,6.83,32.57,9.29s18.13,32.73,18.13,32.73-18.13,25.21-21.85,25.81c-3.72,1.25-9.61-17-9.61-17s0,4.81-1.26,17.82,1.26,11.24,3.11,19.28S63,169,58,169c2.47-32.25.16-72.7,5.14-73.89A139.47,139.47,0,0,0,79.87,88.29Z" transform="translate(0.76 -1.68)"/><path class="e" d="M49.76,87.35c-7.4,2.49-31.3,6.84-32.54,9.21s-18,30.19-18,30.19S16,155.26,19.71,156C21,158.48,30.58,138.3,30.58,138.3s0-23.51,1.22-10.5-1.22,26.66-3.09,34.75,32.87,6.5,37.84,6.5c-.33-28.2,0-74.82,0-74.82A140.85,140.85,0,0,1,49.76,87.35Z" transform="translate(0.76 -1.68)"/><path class="f" d="M51.18,69.82c.24,7.23-2.74,17.53-1.15,20.61s25.69,7.2,28.13-1.52c.8-2.83,0-.22-3.25-20.94C74.5,65.23,51.18,69.82,51.18,69.82Z" transform="translate(0.76 -1.68)"/><path class="g" d="M78.16,88.91c.76-2.85,0-.92-3.25-21.64C74.5,64.52,51.18,71,51.18,71a28.79,28.79,0,0,1,0,5.57,45.12,45.12,0,0,0,10,7.54c2.53,1.13,3.9,6.48,5.32,10C70.48,93.7,77.14,92.67,78.16,88.91Z" transform="translate(0.76 -1.68)"/><path class="f" d="M79.85,56.58C80.32,71.24,69.24,81.64,63.71,82c-4.11.26-17.43-9.73-17.92-24.32S40,30.42,60.86,28.92C81.27,27.44,79.37,41.91,79.85,56.58Z" transform="translate(0.76 -1.68)"/><path class="f" d="M46.14,49.82c-2,.12-5,2.36-2.2,9.87S49,63,49,63Z" transform="translate(0.76 -1.68)"/><path class="g" d="M80.07,56.83c-.47-14.18,1.32-28.18-17-27.75-2.08,8.65-1.94,18.56-1.12,30.05.5,8.06.62,16.4,2.43,23.06C70,81.41,80.53,71.24,80.07,56.83Z" transform="translate(0.76 -1.68)"/><path class="g" d="M78.55,48.81c1.94-.14,5.22,1.71,3.41,9.5s-4.62,3.9-4.62,3.9Z" transform="translate(0.76 -1.68)"/><path class="h" d="M74.81,29.16c2,.29,6.42,2.33,7.07,5.68,1,4.77-.68,15.35-.68,15.35l-3,2.82s1.17-11.31-2.5-15.58A11.19,11.19,0,0,0,70,34.76Z" transform="translate(0.76 -1.68)"/><path class="i" d="M75.66,29.37c-2.66,3.78-2.27,6.66-8,6.27s-10.83,0-12.56.7A6.78,6.78,0,0,0,51.24,41l-1.48-4.44a19.36,19.36,0,0,0-1.4,4.9C48,44.11,48,54,48,54l-3.9-3.66s-3-14.51.78-19,6-3.41,6-3.41,1.17-6.06,11.69-4.93S75.66,29.37,75.66,29.37Z" transform="translate(0.76 -1.68)"/><polygon class="d" points="49.39 78.72 66.24 91.13 60.75 101.76 43.55 87.76 49.39 78.72"/><polygon class="e" points="78.49 78.55 65.89 90.78 71.03 100.34 86.1 87.76 78.49 78.55"/></g><path class="j" d="M198.62,137.56a61.92,61.92,0,1,1-61.94-61.9h0A61.92,61.92,0,0,1,198.62,137.56Z" transform="translate(0.76 -1.68)"/><g class="k"><path class="i" d="M117.77,97.87c-7.52,14.59-8.33,50.64-8,63.61s27.63,7.14,27.63,7.14l1.72-71.14Z" transform="translate(0.76 -1.68)"/><path class="h" d="M159.26,97.63c7.79,12.31,8.57,52.22,8.23,65.23s-27.71,5.76-27.71,5.76l-1.71-71.14Z" transform="translate(0.76 -1.68)"/><path class="f" d="M137.15,167.3l13.11-12.54s-2.38-18.54-2.38-21l-9.74-.53h0l-9.73.53c0,2.42-2.67,22.28-2.67,22.28l11.68,11.22Z" transform="translate(0.76 -1.68)"/><path class="g" d="M148.08,133.8,136,136l3,28.54,11.37-10.31S148.08,136.22,148.08,133.8Z" transform="translate(0.76 -1.68)"/><path class="g" d="M138.24,132.83h-.15l-9.74.54c0,.78-.31,3.45-.68,6.7,2.45,3.64,10,10.36,14.78,10.36,3.89,0,4-6,6.5-8.64-.5-3.9-.87-7.5-.87-8.42Z" transform="translate(0.76 -1.68)"/><path class="f" d="M159.22,116.55c-1.95,14.41-13.64,26.72-20.53,26.72-7.79,0-17.74-7.79-20.74-26.34-2.44-15.15,1.38-30.22,20.37-30.22C156.12,86.71,161.16,101.43,159.22,116.55Z" transform="translate(0.76 -1.68)"/><path class="g" d="M159.22,116.55c1.34-15.16-3.06-29.76-20.8-29.84v56.6h.27C145.66,143.31,157.56,135.51,159.22,116.55Z" transform="translate(0.76 -1.68)"/><path class="h" d="M138.79,97.48c5.68,5.59,15.07.89,17.29,10.65,1,4.33,2.16,10.81-.91,23.82a12,12,0,0,0,.58,8.55l8.2-25.77S162.72,94.5,152.75,88c-6.37-4.16-14.33-3.33-14.68-2.43S138.79,97.48,138.79,97.48Z" transform="translate(0.76 -1.68)"/><path class="i" d="M138.65,97.4c-4.44,4.91-14.61.55-16.73,10.3a42.89,42.89,0,0,0,0,20.82c2.92,10.79,0,13.34,0,13.34l-8.57-27.13S114.52,96.1,125,88.67c6.48-4.61,13.63-4.49,13.63-3.25S138.65,97.4,138.65,97.4Z" transform="translate(0.76 -1.68)"/><path class="i" d="M124.22,123.5a2.15,2.15,0,0,1-2.12-2.2h0v-3.59a2.2,2.2,0,0,1,2.12-2.24h10.26a2.2,2.2,0,0,1,2.11,2.24h0v3.59a2.14,2.14,0,0,1-2.05,2.2H124.22Zm-.37-5.84v3.64a.42.42,0,0,0,.37.46h10.26a.42.42,0,0,0,.37-.46h0v-3.59c0-.33-.21-.48-.37-.48H124.22c-.16,0-.37.15-.37.48Z" transform="translate(0.76 -1.68)"/><rect class="i" x="136.2" y="115.71" width="6.23" height="2.04"/><polygon class="i" points="120.15 114.85 123.44 118.14 123.36 115.2 120.15 113.12 120.15 114.85"/><path class="h" d="M143.05,123.5a2.17,2.17,0,0,1-2.1-2.2h0v-3.61a2.18,2.18,0,0,1,2.1-2.22h10.27a2.19,2.19,0,0,1,2.12,2.22h0v3.61a2.16,2.16,0,0,1-2.12,2.2H143.05Zm-.37-5.84v3.64a.45.45,0,0,0,.37.46h10.27a.42.42,0,0,0,.37-.46h0v-3.61a.42.42,0,0,0-.37-.46H143.05a.45.45,0,0,0-.37.46Z" transform="translate(0.76 -1.68)"/><polygon class="h" points="155.69 115.06 159.02 113.12 158.89 114.77 155.71 118.14 155.69 115.06"/><polygon class="e" points="127.72 150.51 95.74 156.96 109.9 220.28 102.83 247.17 143.62 247.17 139.51 157.89 127.72 150.51"/><polygon class="d" points="147.16 150.8 179.08 159.43 165.2 220.8 173.06 245.87 138.03 245.87 137.91 157.46 147.16 150.8"/><polygon class="l" points="138.44 157.17 151.27 148.04 157.87 153.26 148.29 167.88 138.44 157.17"/><polygon class="l" points="138.44 157.17 125.83 148.47 120.03 152.11 129.3 169.13 138.44 157.17"/><path class="d" d="M168.84,188.33l4.93,29.22c.54,2.9,1.94,5.26.44,6.44-2.76,2.32-8.49,4.85-9.13,7.8a4.92,4.92,0,0,1,2.45-.43c4.21.21,11,2.78,7.11,9.42,0,0-1.46.8,5.2,1.09l11.69-1.38a10.15,10.15,0,0,0,8.35-11.67,10,10,0,0,0-.74-2.45l-20.47-64.8C176.57,157.56,166.38,184.52,168.84,188.33Z" transform="translate(0.76 -1.68)"/><path class="e" d="M103.05,188.9l-5,29.21c-.54,2.9-1.83,5.26-.43,6.47,2.77,2.32,9.23,5.72,9.88,8.69a5.49,5.49,0,0,0-3.2-1.31c-4.22.2-11,2.79-7.11,9.43,0,0,1.45.8-5.2,1.09L79.42,240.3a10,10,0,0,1-8.68-11.15,9.81,9.81,0,0,1,.64-2.49l23.18-67.5C96.64,155.19,105.48,185.1,103.05,188.9Z" transform="translate(0.76 -1.68)"/></g></svg>